<?xml version="1.0" encoding="utf-8"?>
<!-- Generator: Adobe Illustrator 25.3.1, SVG Export Plug-In . SVG Version: 6.00 Build 0)  -->
<svg version="1.1" id="Layer_1" xmlns="http://www.w3.org/2000/svg" xmlns:xlink="http://www.w3.org/1999/xlink" x="0px" y="0px"
	 viewBox="0 0 1125 1146.6" style="enable-background:new 0 0 1125 1146.6;" xml:space="preserve">
<style type="text/css">
	.st0{fill:#1B1464;}
	.st1{fill:#29ABE2;}
	.st2{fill:#0071BC;}
	.st3{fill:#00FFFF;}
	.st4{fill:#FFFFFF;}
	.st5{fill:#F7931E;}
	.st6{fill:#F15A24;}
</style>
<path class="st0" d="M926.2,571.1c-41.9-13.3-202,2.5-202,2.5s-65.4-10.7-289.7-1.8C277,578,201.9,586.5,156.6,616.2v445.2h836.9
	V609.8C970.1,587.2,943.5,576.6,926.2,571.1z"/>
<path d="M850.6,474.4c0,86-30.3,184.8-65.7,243.9c-27.5,46-140.5,64-202,64c-84.1,0-170.7-19.2-215.9-90.9
	c-28.9-45.9-55.7-133.7-55.7-194.2c0-74.5,8.9-163.8,49.8-216.9s93.6-98.4,202.1-111.6c136.3-16.5,207.4,63.5,241.8,126
	C844.6,367,850.6,393.4,850.6,474.4z"/>
<path class="st1" d="M879.5,431.2c0,86.3-33.7,185.4-73.1,244.7C775.8,722,650,740.2,581.6,740.2c-93.6,0-190-19.3-240.3-91.2
	c-32.2-46-62-134.2-62-194.9c0-74.8,9.9-164.4,55.4-217.7s104.2-98.8,224.9-112c151.7-16.6,230.8,63.8,269.1,126.5
	C872.9,323.4,879.5,349.9,879.5,431.2z"/>
<path class="st2" d="M850.6,487.7c0,56.9-28,122.3-60.7,161.4c-25.4,30.4-129.7,42.4-186.5,42.4c-77.7,0-157.6-12.7-199.4-60.2
	c-26.7-30.4-51.5-88.5-51.5-128.5c0-49.3,8.3-108.4,45.9-143.6s86.5-65.1,186.6-73.8c125.8-10.9,191.5,42.1,223.3,83.4
	C845,416.6,850.6,434.1,850.6,487.7z"/>
<path class="st3" d="M821.1,475.5c0,53.5-28.6,114.9-62.1,151.7C733,655.7,626.2,667,568.1,667c-79.5,0-161.4-11.9-204.1-56.5
	c-27.3-28.5-52.7-83.2-52.7-120.8c0-46.3,8.4-101.9,47-134.9s88.5-61.2,191-69.4c128.9-10.4,196,39.4,228.5,78.3
	C815.4,408.7,821.1,425.1,821.1,475.5z"/>
<path class="st4" d="M472.9,314c0,0-88.6,17.7-99.7,66.5c0,0-42.1,66.5-22.2,137.3c0,0,11.1,26.6,35.4,17.7
	c0,0,11.1-82.1,35.4-110.8s57.7-33.2,69.8-55.3C503.9,347.2,503,305.2,472.9,314z"/>
<g>
	<path class="st5" d="M790.9,997.1h-26.6c-25.7,0-46.5-20.8-46.5-46.5v-48.8c0-25.7,20.8-46.5,46.5-46.5h26.6
		c25.7,0,46.5,20.8,46.5,46.5v48.8C837.4,976.3,816.6,997.1,790.9,997.1z"/>
	<path class="st6" d="M790.9,979.4h-26.6c-25.7,0-46.5-20.8-46.5-46.5v-48.8c0-25.7,20.8-46.5,46.5-46.5h26.6
		c25.7,0,46.5,20.8,46.5,46.5v48.8C837.4,958.6,816.6,979.4,790.9,979.4z"/>
</g>
</svg>
