<?xml version="1.0" encoding="utf-8"?>
<!-- Generator: Adobe Illustrator 25.3.1, SVG Export Plug-In . SVG Version: 6.00 Build 0)  -->
<svg version="1.1" id="Layer_1" xmlns="http://www.w3.org/2000/svg" xmlns:xlink="http://www.w3.org/1999/xlink" x="0px" y="0px"
	 viewBox="0 0 1125 1146.6" style="enable-background:new 0 0 1125 1146.6;" xml:space="preserve">
<style type="text/css">
	.st0{fill:#1B1464;}
	.st1{fill:#2E3192;}
	.st2{fill:#29ABE2;}
	.st3{fill:#0071BC;}
	.st4{fill:#00FFFF;}
	.st5{fill:#FFFFFF;}
	.st6{fill:#F7931E;}
	.st7{fill:#F15A24;}
	.st8{fill:#999999;}
</style>
<path class="st0" d="M111.1,1061.4c0,0-41.9-321.2,0-394.3s99.1-86.4,323.4-95.3s289.7,1.8,289.7,1.8s160.1-15.8,202-2.5
	c41.9,13.3,138.6,56.8,112.4,226.7c-26.2,169.9-5.2,250.3,5.2,263.6H111.1z"/>
<path class="st1" d="M879.5,474.4c0,86-33.7,184.8-73.1,243.9c-30.6,46-156.4,64-224.8,64c-93.6,0-190-19.2-240.3-90.9
	c-32.2-45.9-62-133.7-62-194.2c0-74.5,9.9-163.8,55.4-216.9s104.2-98.4,224.9-111.6c151.7-16.5,230.8,63.5,269.1,126
	C872.9,367,879.5,393.4,879.5,474.4z"/>
<path class="st2" d="M879.5,431.2c0,86.3-33.7,185.4-73.1,244.7c-30.6,46.1-156.4,64.3-224.8,64.3c-93.6,0-190-19.3-240.3-91.2
	c-32.2-46-62-134.2-62-194.9c0-74.8,9.9-164.4,55.4-217.7s104.2-98.8,224.9-112c151.7-16.6,230.8,63.8,269.1,126.5
	C872.9,323.4,879.5,349.9,879.5,431.2z"/>
<path class="st3" d="M819.7,467.7c0,56.9-23.7,122.3-51.3,161.4c-21.5,30.4-109.6,42.4-157.6,42.4c-65.7,0-133.2-12.7-168.5-60.2
	c-22.6-30.4-43.5-88.5-43.5-128.5c0-49.3,7-108.4,38.8-143.6s73.1-65.1,157.7-73.8c106.3-10.9,161.8,42.1,188.7,83.4
	C815,396.6,819.7,414.1,819.7,467.7z"/>
<path class="st4" d="M794.8,455.5c0,53.5-24.2,114.9-52.5,151.7C720.4,635.7,630.1,647,581,647c-67.2,0-136.4-11.9-172.5-56.5
	c-23.1-28.5-44.5-83.2-44.5-120.8c0-46.3,7.1-101.9,39.7-134.9s74.8-61.2,161.4-69.4C674,255,730.7,304.8,758.2,343.7
	C790,388.7,794.8,405.1,794.8,455.5z"/>
<path class="st5" d="M526,299.4c0,0-88.6,17.7-99.7,66.5c0,0-42.1,66.5-22.2,137.3c0,0,11.1,26.6,35.4,17.7
	c0,0,11.1-82.1,35.4-110.8s57.7-33.2,69.8-55.3C557,332.6,556.1,290.6,526,299.4z"/>
<g>
	<path class="st6" d="M790.9,997.1h-26.6c-25.7,0-46.5-20.8-46.5-46.5v-48.8c0-25.7,20.8-46.5,46.5-46.5h26.6
		c25.7,0,46.5,20.8,46.5,46.5v48.8C837.4,976.3,816.6,997.1,790.9,997.1z"/>
	<path class="st7" d="M790.9,979.4h-26.6c-25.7,0-46.5-20.8-46.5-46.5v-48.8c0-25.7,20.8-46.5,46.5-46.5h26.6
		c25.7,0,46.5,20.8,46.5,46.5v48.8C837.4,958.6,816.6,979.4,790.9,979.4z"/>
</g>
<path class="st8" d="M1012,18H107.1c-41.3,0-74.7,34.2-74.7,76.4v955.7c0,42.2,33.4,76.4,74.7,76.4H1012c41.3,0,74.7-34.2,74.7-76.4
	V94.4C1086.7,52.2,1053.3,18,1012,18z M1000.1,952.7c-9.6,39.4-116.5,78.7-199.3,68.9c-82.7-9.8-360-32.8-424.8-32.8
	s-135.4,32.8-180.2-65.6c-44.9-98.4-19.2-278.8-57.7-475.6V191.8c0,0,6.4-98.4,57.7-98.4c51.3,0,685.8-16.4,737,19.7
	c51.3,36.1,67.3,0,67.3,127.9c0,127.9-22.4,229.6,0,406.7C1022.5,824.8,1009.7,913.4,1000.1,952.7z"/>
</svg>
